<?xml version="1.0" encoding="UTF-8" standalone="no"?>
<!-- Created with Inkscape (http://www.inkscape.org/) -->

<svg
   xmlns:dc="http://purl.org/dc/elements/1.1/"
   xmlns:cc="http://creativecommons.org/ns#"
   xmlns:rdf="http://www.w3.org/1999/02/22-rdf-syntax-ns#"
   xmlns:svg="http://www.w3.org/2000/svg"
   xmlns="http://www.w3.org/2000/svg"
   xmlns:sodipodi="http://sodipodi.sourceforge.net/DTD/sodipodi-0.dtd"
   xmlns:inkscape="http://www.inkscape.org/namespaces/inkscape"
   version="1.1"
   id="svg2"
   xml:space="preserve"
   width="244.05182"
   height="217.41617"
   viewBox="0 0 244.05182 217.41616"
   sodipodi:docname="O9S1SH1.eps"
   inkscape:version="0.92.4 5da689c313, 2019-01-14"><metadata
     id="metadata8"><rdf:RDF><cc:Work
         rdf:about=""><dc:format>image/svg+xml</dc:format><dc:type
           rdf:resource="http://purl.org/dc/dcmitype/StillImage" /><dc:title></dc:title></cc:Work></rdf:RDF></metadata><defs
     id="defs6" /><sodipodi:namedview
     pagecolor="#ffffff"
     bordercolor="#666666"
     borderopacity="1"
     objecttolerance="10"
     gridtolerance="10"
     guidetolerance="10"
     inkscape:pageopacity="0"
     inkscape:pageshadow="2"
     inkscape:window-width="1366"
     inkscape:window-height="695"
     id="namedview4"
     showgrid="false"
     fit-margin-top="0"
     fit-margin-left="0"
     fit-margin-right="0"
     fit-margin-bottom="0"
     inkscape:zoom="0.295"
     inkscape:cx="-70.315493"
     inkscape:cy="319.59801"
     inkscape:window-x="0"
     inkscape:window-y="0"
     inkscape:window-maximized="1"
     inkscape:current-layer="g12" /><g
     id="g10"
     inkscape:groupmode="layer"
     inkscape:label="ink_ext_XXXXXX"
     transform="matrix(1.3333333,0,0,-1.3333333,-75.450529,634.49301)"><g
       id="g12"
       transform="matrix(0.08281024,0,0,0.08408385,9.7273225,10.31683)"><path
         d="m 6900.07,1506.3 c 0,-257.5 216.46,-467 482.52,-467 266.07,0 482.53,209.5 482.53,467 0,202 -314.95,702.7 -482.53,946.93 C 7215.02,2209 6900.07,1708.3 6900.07,1506.3"
         style="fill:#61c9e7;fill-opacity:1;fill-rule:nonzero;stroke:none"
         id="path14"
         inkscape:connector-curvature="0" /><path
         d="m 3736.1,5021.39 c 0,-69.55 25.67,-135.19 71.54,-185.76 47.49,35.73 101.58,62.39 159.15,77.91 19.97,127.09 82.51,243.7 178.38,331.34 4.5,4.12 9.08,8.12 13.69,12.08 -43.35,26.94 -93.41,41.41 -145.78,41.41 -152.73,0 -276.98,-124.25 -276.98,-276.98"
         style="fill:#dec60f;fill-opacity:1;fill-rule:nonzero;stroke:none"
         id="path16"
         inkscape:connector-curvature="0" /><path
         d="m 1432.72,1601.5 c -81.7,199.5 -96.11,414.9 -41.66,622.92 36.65,139.99 104.57,271.12 196.5,382.03 -26.09,-7.95 -51.87,-17.13 -77.26,-27.53 C 1063.74,2396.04 849.215,1884 1032.09,1437.4 c 88.59,-216.3 256.11,-385.2 471.71,-475.502 215.61,-90.296 453.48,-91.296 669.8,-2.699 25.4,10.403 50.21,21.903 74.39,34.602 -143.34,14.499 -283.7,60.299 -408.02,134.399 -184.72,110.1 -325.54,273.8 -407.25,473.3"
         style="fill:#e1c014;fill-opacity:1;fill-rule:nonzero;stroke:none"
         id="path20"
         inkscape:connector-curvature="0" /><path
         d="m 8342.4,7788.5 c -9.51,7.25 -16.44,17.35 -19.76,28.84 -50.94,176.04 -214.65,298.99 -398.12,298.99 -33.79,0 -67.47,-4.1 -100.09,-12.19 -22.48,-5.57 -46.13,3.37 -59.28,22.48 -85.63,124.38 -226.74,198.64 -377.47,198.64 -114.63,0 -224.31,-42.55 -308.83,-119.82 -84.01,-76.79 -136.2,-181.18 -146.98,-293.95 -1.86,-19.5 -13.84,-36.59 -31.53,-45.01 -5.51,-2.61 -11.05,-5.46 -16.5,-8.47 -4.64,-2.57 -9.63,-4.46 -14.82,-5.62 -77.27,-17.24 -147.47,-60.68 -197.65,-122.3 -51.57,-63.32 -78.83,-139.95 -78.83,-221.62 0,-194.36 159.03,-352.49 354.5,-352.49 H 8127.1 c 195.47,0 354.5,158.13 354.5,352.49 0,110.6 -50.74,212.67 -139.2,280.03"
         style="fill:#61c9e7;fill-opacity:1;fill-rule:nonzero;stroke:none"
         id="path26"
         inkscape:connector-curvature="0" /><path
         d="m 9648.33,7155.98 h 1180.07 c 195.5,0 354.5,158.13 354.5,352.49 0,110.6 -50.7,212.67 -139.2,280.03 -9.5,7.25 -16.4,17.35 -19.8,28.84 -50.9,176.04 -214.6,298.99 -398.1,298.99 -33.8,0 -67.5,-4.1 -100.1,-12.19 -22.5,-5.57 -46.1,3.37 -59.3,22.48 -85.6,124.38 -226.7,198.64 -377.4,198.64 -114.65,0 -224.33,-42.55 -308.86,-119.82 -84,-76.79 -136.2,-181.18 -146.97,-293.95 -1.87,-19.5 -13.84,-36.59 -31.53,-45.01 -5.51,-2.61 -11.06,-5.46 -16.5,-8.47 -4.65,-2.57 -9.64,-4.46 -14.82,-5.62 -77.28,-17.24 -147.48,-60.68 -197.66,-122.3 -51.57,-63.32 -78.83,-139.95 -78.83,-221.62 0,-194.36 159.03,-352.49 354.5,-352.49"
         style="fill:#61c9e7;fill-opacity:1;fill-rule:nonzero;stroke:none"
         id="path28"
         inkscape:connector-curvature="0" /><path
         d="m 5332.15,2117.32 c -9.51,7.24 -16.44,17.35 -19.76,28.83 -50.94,176.04 -214.65,298.99 -398.12,298.99 -33.79,0 -67.46,-4.1 -100.09,-12.19 -22.51,-5.58 -46.13,3.38 -59.28,22.48 -85.62,124.39 -226.74,198.65 -377.47,198.65 -114.62,0 -224.3,-42.56 -308.83,-119.83 -84.01,-76.79 -136.2,-181.18 -146.98,-293.95 -1.86,-19.5 -13.83,-36.59 -31.52,-45 -5.52,-2.62 -11.07,-5.48 -16.5,-8.48 -4.64,-2.57 -9.63,-4.46 -14.82,-5.62 -77.28,-17.25 -147.48,-60.68 -197.66,-122.3 -51.57,-63.3 -78.83,-140 -78.83,-221.6 0,-194.4 159.03,-352.5 354.5,-352.5 h 1180.07 c 195.47,0 354.49,158.1 354.49,352.5 0,110.6 -50.74,212.65 -139.2,280.02"
         style="fill:#61c9e7;fill-opacity:1;fill-rule:nonzero;stroke:none"
         id="path30"
         inkscape:connector-curvature="0" /><path
         d="m 10238.4,4659.81 c -315.97,0 -576.3,-242.61 -604.51,-551.31 h 1208.91 c -28.2,308.7 -288.5,551.31 -604.4,551.31"
         style="fill:#dec60f;fill-opacity:1;fill-rule:nonzero;stroke:none"
         id="path32"
         inkscape:connector-curvature="0" /><path
         d="m 9316.31,1889.5 c 66.79,41.5 160.38,83.4 265.56,83.4 174.06,0 260.44,-59.6 332.03,-126.5 68.32,61.2 158.1,126.5 329.8,126.5 171,0 272.1,-68.1 332,-123.4 68.4,65.3 162.1,123.4 329.7,123.4 102.1,0 190.6,-39.4 254.4,-79.7 -67,400.13 -454.7,707.97 -921.4,707.97 -468.24,0 -856.89,-309.75 -922.09,-711.67"
         style="fill:#4492a8;fill-opacity:1;fill-rule:nonzero;stroke:none"
         id="path34"
         inkscape:connector-curvature="0" /><path
         d="m -6195.1621,6333.0436 h 1180.07 c 195.46,0 354.49,158.13 354.49,352.47 0,110.6 -50.74,212.7 -139.2,280.1 -9.51,7.2 -16.44,17.3 -19.76,28.8 -50.94,176 -214.65,299 -398.12,299 -33.79,0 -67.47,-4.1 -100.09,-12.2 -22.51,-5.6 -46.13,3.4 -59.28,22.5 -85.62,124.4 -226.73,198.6 -377.47,198.6 -114.63,0 -224.31,-42.5 -308.84,-119.8 -84,-76.8 -136.19,-181.2 -146.97,-294 -1.86,-19.5 -13.83,-36.5 -31.52,-45 -5.53,-2.6 -11.08,-5.4 -16.5,-8.4 -4.65,-2.6 -9.64,-4.5 -14.82,-5.6 -77.283,-17.3 -147.483,-60.7 -197.662,-122.3 -51.571,-63.4 -78.828,-140 -78.828,-221.7 0,-194.34 159.027,-352.47 354.5,-352.47"
         style="fill:#61c9e7;fill-opacity:1;fill-rule:nonzero;stroke:none"
         id="path40"
         inkscape:connector-curvature="0" /><path
         d="m 7382.59,4099.46 c 288.59,0 523.37,234.78 523.37,523.37 0,288.59 -234.78,523.38 -523.37,523.38 -288.58,0 -523.37,-234.79 -523.37,-523.38 0,-288.59 234.79,-523.37 523.37,-523.37"
         style="fill:#dec60f;fill-opacity:1;fill-rule:nonzero;stroke:none"
         id="path44"
         inkscape:connector-curvature="0" /><path
         d="m 5483.88,4745.73 c -9.51,7.24 -16.44,17.35 -19.76,28.83 -50.93,176.04 -214.64,298.99 -398.11,298.99 -33.8,0 -67.47,-4.1 -100.1,-12.19 -22.51,-5.58 -46.12,3.38 -59.28,22.48 -85.62,124.39 -226.73,198.65 -377.47,198.65 -114.62,0 -224.3,-42.56 -308.83,-119.83 -84,-76.79 -136.2,-181.18 -146.98,-293.95 -1.86,-19.5 -13.83,-36.59 -31.52,-45 -5.51,-2.62 -11.06,-5.48 -16.5,-8.48 -4.65,-2.57 -9.64,-4.46 -14.82,-5.62 -77.28,-17.24 -147.48,-60.68 -197.66,-122.3 -51.57,-63.31 -78.83,-139.95 -78.83,-221.62 0,-194.36 159.03,-352.49 354.5,-352.49 h 1180.07 c 195.47,0 354.5,158.13 354.5,352.49 0,110.6 -50.74,212.67 -139.21,280.04"
         style="fill:#61c9e7;fill-opacity:1;fill-rule:nonzero;stroke:none"
         id="path48"
         inkscape:connector-curvature="0" /><g
         id="g8816"><path
           inkscape:connector-curvature="0"
           id="path36"
           style="fill:#4492a8;fill-opacity:1;fill-rule:nonzero;stroke:none"
           d="m 1081.02,7155.98 h 1180.07 c 195.46,0 354.49,158.13 354.49,352.49 0,110.6 -50.74,212.67 -139.2,280.03 -9.51,7.25 -16.44,17.35 -19.76,28.84 -50.94,176.04 -214.65,298.99 -398.12,298.99 -33.79,0 -67.47,-4.1 -100.09,-12.19 -22.51,-5.57 -46.13,3.37 -59.28,22.48 -85.63,124.38 -226.74,198.64 -377.47,198.64 -114.63,0 -224.31,-42.55 -308.84,-119.82 -84,-76.79 -136.19,-181.18 -146.97,-293.95 -1.86,-19.5 -13.83,-36.59 -31.52,-45 -5.53,-2.63 -11.08,-5.48 -16.5,-8.48 -4.65,-2.57 -9.64,-4.46 -14.82,-5.62 -77.283,-17.24 -147.483,-60.68 -197.662,-122.3 -51.571,-63.32 -78.828,-139.95 -78.828,-221.62 0,-194.36 159.027,-352.49 354.5,-352.49" /><path
           inkscape:connector-curvature="0"
           id="path50"
           style="fill:#61c9e7;fill-opacity:1;fill-rule:nonzero;stroke:none"
           d="m 1143.22,6977.13 c -29.41,-9.01 -45.95,-40.16 -36.93,-69.57 l 67.06,-218.82 c 7.34,-23.98 29.39,-39.39 53.23,-39.39 5.4,0 10.9,0.79 16.34,2.46 29.41,9.01 45.94,40.16 36.93,69.57 l -67.06,218.82 c -9.01,29.41 -40.16,45.95 -69.57,36.93" /><path
           inkscape:connector-curvature="0"
           id="path52"
           style="fill:#61c9e7;fill-opacity:1;fill-rule:nonzero;stroke:none"
           d="m 1609.62,6977.13 c -29.41,-9.01 -45.95,-40.16 -36.94,-69.57 l 67.06,-218.82 c 7.35,-23.98 29.4,-39.39 53.24,-39.39 5.4,0 10.9,0.79 16.34,2.46 29.41,9.01 45.94,40.16 36.93,69.57 l -67.06,218.82 c -9.02,29.41 -40.17,45.95 -69.57,36.93" /><path
           inkscape:connector-curvature="0"
           id="path54"
           style="fill:#61c9e7;fill-opacity:1;fill-rule:nonzero;stroke:none"
           d="m 2076.02,6977.13 c -29.41,-9.01 -45.95,-40.16 -36.94,-69.57 l 67.06,-218.82 c 7.35,-23.98 29.4,-39.39 53.24,-39.39 5.4,0 10.9,0.79 16.34,2.46 29.41,9.01 45.94,40.16 36.93,69.57 l -67.06,218.82 c -9.02,29.41 -40.16,45.95 -69.57,36.93" /></g><g
         id="g8843"><path
           inkscape:connector-curvature="0"
           id="path22"
           style="fill:#4492a8;fill-opacity:1;fill-rule:nonzero;stroke:none"
           d="m 5548.65,7508.47 c 0,110.6 -50.74,212.67 -139.21,280.03 -9.51,7.25 -16.44,17.35 -19.76,28.84 -50.93,176.04 -214.64,298.99 -398.11,298.99 -33.8,0 -67.47,-4.1 -100.1,-12.19 -22.51,-5.57 -46.13,3.37 -59.28,22.48 -85.62,124.38 -226.73,198.64 -377.47,198.64 -114.62,0 -224.3,-42.55 -308.83,-119.82 -84,-76.79 -136.2,-181.18 -146.97,-293.95 -1.87,-19.5 -13.84,-36.59 -31.53,-45 -5.52,-2.63 -11.07,-5.48 -16.5,-8.48 -4.64,-2.57 -9.63,-4.46 -14.82,-5.62 -77.28,-17.24 -147.48,-60.68 -197.66,-122.3 -51.57,-63.32 -78.83,-139.95 -78.83,-221.62 0,-194.36 159.03,-352.49 354.5,-352.49 h 1180.07 c 195.47,0 354.5,158.13 354.5,352.49" /><path
           inkscape:connector-curvature="0"
           id="path56"
           style="fill:#61c9e7;fill-opacity:1;fill-rule:nonzero;stroke:none"
           d="m 4159.64,6649.35 c 5.41,0 10.91,0.79 16.34,2.46 29.41,9.01 45.95,40.16 36.93,69.57 l -67.06,218.82 c -9.01,29.41 -40.16,45.95 -69.57,36.93 -29.41,-9.01 -45.94,-40.16 -36.93,-69.57 l 67.06,-218.82 c 7.35,-23.98 29.4,-39.39 53.23,-39.39" /><path
           inkscape:connector-curvature="0"
           id="path58"
           style="fill:#61c9e7;fill-opacity:1;fill-rule:nonzero;stroke:none"
           d="m 4465.25,6385.46 c 5.41,0 10.9,0.79 16.34,2.46 29.41,9.01 45.94,40.16 36.93,69.57 l -67.06,218.82 c -9.01,29.42 -40.15,45.95 -69.57,36.94 -29.41,-9.02 -45.95,-40.16 -36.94,-69.57 l 67.07,-218.83 c 7.34,-23.97 29.4,-39.39 53.23,-39.39" /><path
           inkscape:connector-curvature="0"
           id="path60"
           style="fill:#61c9e7;fill-opacity:1;fill-rule:nonzero;stroke:none"
           d="m 4853.83,6727.24 c -29.41,-9.01 -45.94,-40.16 -36.93,-69.57 l 67.06,-218.82 c 7.35,-23.98 29.4,-39.4 53.23,-39.4 5.41,0 10.91,0.8 16.34,2.47 29.41,9.01 45.95,40.16 36.93,69.57 l -67.06,218.82 c -9.01,29.41 -40.17,45.95 -69.57,36.93" /><path
           inkscape:connector-curvature="0"
           id="path62"
           style="fill:#61c9e7;fill-opacity:1;fill-rule:nonzero;stroke:none"
           d="m 4626.04,6649.35 c 5.4,0 10.9,0.79 16.34,2.46 29.41,9.01 45.94,40.16 36.93,69.57 l -67.06,218.82 c -9.01,29.41 -40.17,45.95 -69.57,36.93 -29.41,-9.01 -45.95,-40.16 -36.93,-69.57 l 67.06,-218.82 c 7.35,-23.98 29.4,-39.39 53.23,-39.39" /><path
           inkscape:connector-curvature="0"
           id="path64"
           style="fill:#61c9e7;fill-opacity:1;fill-rule:nonzero;stroke:none"
           d="m 5092.44,6649.35 c 5.4,0 10.9,0.79 16.34,2.46 29.41,9.01 45.94,40.16 36.93,69.57 l -67.06,218.82 c -9.01,29.41 -40.16,45.95 -69.57,36.93 -29.41,-9.01 -45.95,-40.16 -36.93,-69.57 l 67.06,-218.82 c 7.34,-23.98 29.4,-39.39 53.23,-39.39" /></g><g
         id="g8745"><path
           inkscape:connector-curvature="0"
           id="path42"
           style="fill:#61c9e7;fill-opacity:1;fill-rule:nonzero;stroke:none"
           d="m 5483.88,10382.3 c -9.51,7.2 -16.44,17.3 -19.76,28.8 -50.93,176 -214.64,299 -398.11,299 -33.8,0 -67.47,-4.1 -100.09,-12.2 -22.53,-5.6 -46.13,3.4 -59.29,22.5 -85.62,124.4 -226.73,198.6 -377.47,198.6 -114.62,0 -224.3,-42.5 -308.83,-119.8 -84,-76.8 -136.2,-181.2 -146.98,-294 -1.86,-19.5 -13.83,-36.5 -31.52,-45 -5.51,-2.6 -11.06,-5.4 -16.5,-8.4 -4.65,-2.6 -9.64,-4.5 -14.82,-5.6 -77.28,-17.3 -147.48,-60.7 -197.66,-122.3 -51.57,-63.4 -78.83,-140 -78.83,-221.7 0,-194.34 159.03,-352.47 354.5,-352.47 h 1180.07 c 195.47,0 354.5,158.13 354.5,352.47 0,110.6 -50.74,212.7 -139.21,280.1" /><path
           inkscape:connector-curvature="0"
           id="path46"
           style="fill:#dec60f;fill-opacity:1;fill-rule:nonzero;stroke:none"
           d="m 3736.1,10657.9 c 0,-69.5 25.67,-135.2 71.54,-185.7 47.48,35.7 101.58,62.4 159.15,77.9 19.97,127.1 82.51,243.7 178.38,331.3 4.5,4.1 9.08,8.1 13.7,12.1 -43.36,26.9 -93.42,41.4 -145.79,41.4 -152.73,0 -276.98,-124.2 -276.98,-277" /><path
           inkscape:connector-curvature="0"
           id="path66"
           style="fill:#dec60f;fill-opacity:1;fill-rule:nonzero;stroke:none"
           d="m 4013.08,11083.7 c 30.76,0 55.69,25 55.69,55.7 v 156.7 c 0,30.8 -24.93,55.7 -55.69,55.7 -30.76,0 -55.7,-24.9 -55.7,-55.7 v -156.7 c 0,-30.7 24.94,-55.7 55.7,-55.7" /><path
           inkscape:connector-curvature="0"
           id="path68"
           style="fill:#dec60f;fill-opacity:1;fill-rule:nonzero;stroke:none"
           d="m 3724.09,11047.1 c 10.31,-17.9 29.04,-27.9 48.29,-27.9 9.44,0 19.02,2.4 27.79,7.5 26.64,15.4 35.77,49.4 20.39,76.1 l -78.35,135.7 c -15.39,26.6 -49.45,35.7 -76.09,20.4 -26.64,-15.4 -35.76,-49.5 -20.39,-76.1 l 78.36,-135.7" /><path
           inkscape:connector-curvature="0"
           id="path70"
           style="fill:#dec60f;fill-opacity:1;fill-rule:nonzero;stroke:none"
           d="m 3432.52,10928.8 135.71,-78.4 c 8.77,-5 18.35,-7.4 27.8,-7.4 19.25,0 37.97,10 48.29,27.8 15.38,26.7 6.25,60.7 -20.39,76.1 l -135.71,78.4 c -26.64,15.3 -60.71,6.2 -76.09,-20.4 -15.38,-26.7 -6.25,-60.7 20.39,-76.1" /><path
           inkscape:connector-curvature="0"
           id="path72"
           style="fill:#dec60f;fill-opacity:1;fill-rule:nonzero;stroke:none"
           d="m 3374.86,10602.2 h 156.71 c 30.76,0 55.7,25 55.7,55.7 0,30.8 -24.94,55.7 -55.7,55.7 h -156.71 c -30.76,0 -55.69,-24.9 -55.69,-55.7 0,-30.7 24.93,-55.7 55.69,-55.7" /><path
           inkscape:connector-curvature="0"
           id="path74"
           style="fill:#dec60f;fill-opacity:1;fill-rule:nonzero;stroke:none"
           d="m 3644.32,10445 c -15.39,26.7 -49.45,35.8 -76.09,20.4 l -135.71,-78.3 c -26.64,-15.4 -35.77,-49.5 -20.39,-76.1 10.32,-17.9 29.04,-27.9 48.29,-27.9 9.45,0 19.03,2.4 27.8,7.5 l 135.71,78.3 c 26.64,15.4 35.77,49.5 20.39,76.1" /><path
           inkscape:connector-curvature="0"
           id="path76"
           style="fill:#dec60f;fill-opacity:1;fill-rule:nonzero;stroke:none"
           d="m 4225.98,11026.7 c 8.78,-5.1 18.35,-7.5 27.8,-7.5 19.25,0 37.97,10 48.29,27.9 l 78.35,135.7 c 15.38,26.6 6.25,60.7 -20.39,76.1 -26.64,15.3 -60.7,6.2 -76.08,-20.4 l -78.36,-135.7 c -15.37,-26.7 -6.25,-60.7 20.39,-76.1" /></g><path
         d="m 4245.67,3530.35 c 5.4,0 10.9,0.79 16.34,2.46 29.41,9.01 45.94,40.16 36.93,69.57 l -67.06,218.82 c -9.02,29.42 -40.17,45.95 -69.57,36.94 -29.41,-9.02 -45.95,-40.16 -36.94,-69.57 l 67.06,-218.83 c 7.35,-23.98 29.4,-39.39 53.24,-39.39"
         style="fill:#61c9e7;fill-opacity:1;fill-rule:nonzero;stroke:none"
         id="path78"
         inkscape:connector-curvature="0" /><path
         d="m 4712.07,3530.35 c 5.4,0 10.9,0.79 16.33,2.46 29.41,9.01 45.95,40.16 36.94,69.57 l -67.06,218.82 c -9.02,29.42 -40.17,45.95 -69.58,36.94 -29.41,-9.02 -45.94,-40.16 -36.93,-69.57 l 67.06,-218.83 c 7.35,-23.98 29.4,-39.39 53.24,-39.39"
         style="fill:#61c9e7;fill-opacity:1;fill-rule:nonzero;stroke:none"
         id="path80"
         inkscape:connector-curvature="0" /><path
         d="m 5178.47,3530.35 c 5.4,0 10.9,0.79 16.33,2.46 29.41,9.01 45.95,40.16 36.94,69.57 l -67.07,218.82 c -9.01,29.42 -40.16,45.95 -69.57,36.94 -29.41,-9.02 -45.94,-40.16 -36.93,-69.57 l 67.06,-218.83 c 7.35,-23.98 29.4,-39.39 53.24,-39.39"
         style="fill:#61c9e7;fill-opacity:1;fill-rule:nonzero;stroke:none"
         id="path82"
         inkscape:connector-curvature="0" /><path
         d="m 3957.38,5659.6 v -156.71 c 0,-30.76 24.94,-55.69 55.7,-55.69 30.76,0 55.69,24.93 55.69,55.69 v 156.71 c 0,30.76 -24.93,55.7 -55.69,55.7 -30.76,0 -55.7,-24.94 -55.7,-55.7"
         style="fill:#dec60f;fill-opacity:1;fill-rule:nonzero;stroke:none"
         id="path84"
         inkscape:connector-curvature="0" /><path
         d="m 3772.38,5382.68 c 9.44,0 19.02,2.4 27.79,7.47 26.64,15.38 35.77,49.44 20.39,76.08 l -78.35,135.72 c -15.39,26.64 -49.45,35.77 -76.09,20.39 -26.64,-15.38 -35.76,-49.45 -20.39,-76.09 l 78.36,-135.71 c 10.31,-17.87 29.04,-27.86 48.29,-27.86"
         style="fill:#dec60f;fill-opacity:1;fill-rule:nonzero;stroke:none"
         id="path86"
         inkscape:connector-curvature="0" /><path
         d="m 3623.93,5310.38 -135.71,78.35 c -26.64,15.38 -60.71,6.26 -76.09,-20.38 -15.38,-26.64 -6.25,-60.71 20.39,-76.09 l 135.71,-78.35 c 8.77,-5.07 18.35,-7.47 27.8,-7.47 19.25,0 37.97,9.99 48.29,27.85 15.38,26.64 6.25,60.7 -20.39,76.09"
         style="fill:#dec60f;fill-opacity:1;fill-rule:nonzero;stroke:none"
         id="path88"
         inkscape:connector-curvature="0" /><path
         d="m 3587.27,5021.39 c 0,30.76 -24.94,55.7 -55.7,55.7 h -156.71 c -30.76,0 -55.69,-24.94 -55.69,-55.7 0,-30.76 24.93,-55.7 55.69,-55.7 h 156.71 c 30.76,0 55.7,24.94 55.7,55.7"
         style="fill:#dec60f;fill-opacity:1;fill-rule:nonzero;stroke:none"
         id="path90"
         inkscape:connector-curvature="0" /><path
         d="m 3623.93,4732.4 c 26.64,15.38 35.77,49.44 20.39,76.08 -15.38,26.64 -49.45,35.78 -76.09,20.39 l -135.71,-78.35 c -26.64,-15.38 -35.77,-49.44 -20.39,-76.08 10.32,-17.87 29.04,-27.86 48.29,-27.86 9.45,0 19.03,2.4 27.8,7.47 l 135.71,78.35"
         style="fill:#dec60f;fill-opacity:1;fill-rule:nonzero;stroke:none"
         id="path92"
         inkscape:connector-curvature="0" /><path
         d="m 4225.98,5390.15 c 8.78,-5.07 18.35,-7.47 27.8,-7.47 19.25,0 37.97,9.99 48.29,27.86 l 78.35,135.71 c 15.38,26.64 6.25,60.71 -20.39,76.09 -26.64,15.37 -60.7,6.25 -76.08,-20.39 l -78.36,-135.72 c -15.37,-26.64 -6.25,-60.7 20.39,-76.08"
         style="fill:#dec60f;fill-opacity:1;fill-rule:nonzero;stroke:none"
         id="path94"
         inkscape:connector-curvature="0" /><g
         id="g8791"><path
           inkscape:connector-curvature="0"
           id="path38"
           style="fill:#61c9e7;fill-opacity:1;fill-rule:nonzero;stroke:none"
           d="m 9860.09,9964.64 247.81,729.56 h 313.1 l -182.6,-492.7 h 378.2 l -230.5,-351.57 h 442.3 c 195.5,0 354.5,158.17 354.5,352.47 0,110.6 -50.7,212.7 -139.2,280.1 -9.5,7.2 -16.4,17.3 -19.8,28.8 -50.9,176 -214.6,299 -398.1,299 -33.8,0 -67.5,-4.1 -100.1,-12.2 -22.5,-5.6 -46.1,3.4 -59.3,22.5 -85.6,124.4 -226.7,198.6 -377.4,198.6 -114.65,0 -224.33,-42.5 -308.86,-119.8 -84,-76.8 -136.2,-181.2 -146.97,-294 -1.87,-19.5 -13.85,-36.6 -31.55,-45 -5.47,-2.6 -11.02,-5.4 -16.48,-8.4 -4.65,-2.6 -9.64,-4.5 -14.82,-5.7 -77.28,-17.2 -147.48,-60.6 -197.66,-122.2 -51.57,-63.4 -78.83,-140 -78.83,-221.7 0,-194.3 159.03,-352.47 354.5,-352.47 h 515.57 l 28.8,114.71 h -332.61" /><path
           inkscape:connector-curvature="0"
           id="path96"
           style="fill:#dec60f;fill-opacity:1;fill-rule:nonzero;stroke:none"
           d="m 10238.4,10201.5 182.6,492.7 h -313.1 l -247.81,-729.56 h 332.61 l -28.8,-114.71 -27.9,-111.39 -109.6,-437.13 286.6,437.13 73.1,111.39 230.5,351.57 h -378.2" /></g><g
         id="g8768"><path
           inkscape:connector-curvature="0"
           id="path18"
           style="fill:#61c9e7;fill-opacity:1;fill-rule:nonzero;stroke:none"
           d="m 7095.27,10150.1 c 0,218.9 198.07,397.1 441.52,397.1 52.59,0 103.58,-8.1 152.11,-24.2 50.26,51.5 115.61,88.6 187.81,107.7 -64.32,129.9 -198.91,216.2 -347.41,216.2 -31.58,0 -63.05,-3.9 -93.54,-11.4 -22.51,-5.6 -46.13,3.3 -59.28,22.4 -80.09,116.4 -212.06,185.8 -353.04,185.8 -107.2,0 -209.78,-39.8 -288.83,-112 -78.56,-71.8 -127.38,-169.5 -137.46,-274.9 -1.86,-19.5 -13.83,-36.6 -31.52,-45 -5.16,-2.5 -10.33,-5.1 -15.37,-7.9 -4.65,-2.6 -9.64,-4.5 -14.83,-5.7 -72.12,-16.1 -137.62,-56.6 -184.45,-114.1 -48.13,-59.1 -73.56,-130.6 -73.56,-206.8 0,-181.4 148.4,-328.92 330.82,-328.92 h 397.21 c 10.95,67.72 41.89,131.42 90.23,184.72 -0.27,5.7 -0.41,11.3 -0.41,17" /><path
           inkscape:connector-curvature="0"
           id="path98"
           style="fill:#4492a8;fill-opacity:1;fill-rule:nonzero;stroke:none"
           d="m 8296.95,10140.7 c -28.9,10.5 -43.86,42.4 -33.43,71.3 8.57,23.8 12.92,48.5 12.92,73.6 0,105.7 -77.06,196.2 -185.25,231.8 -31.86,10.5 -66.38,16.4 -102.46,16.4 -18.89,0 -37.5,-1.7 -55.65,-4.8 -74.28,-12.6 -140.56,-50.2 -183.72,-105.9 -15.56,-20 -42.72,-27.1 -66.04,-17 -45.77,19.7 -95.07,29.7 -146.53,29.7 -182.03,0 -330.12,-128.2 -330.12,-285.7 0,-10.1 0.64,-20.5 1.91,-30.8 2.16,-17.4 -4.02,-34.8 -16.68,-46.9 -36.83,-35.5 -61.7,-78.23 -72.86,-124.02 -4.39,-18.01 -6.72,-36.48 -6.72,-55.17 0,-19.28 2.42,-38.08 6.92,-56.22 29.99,-120.98 154.62,-211.98 303.44,-211.98 h 754.74 c 171.12,0 310.35,120.32 310.35,268.2 0,108.39 -74.9,205.59 -190.82,247.49" /></g><g
         id="g8869"><path
           inkscape:connector-curvature="0"
           id="path24"
           style="fill:#61c9e7;fill-opacity:1;fill-rule:nonzero;stroke:none"
           d="m 1383.73,4643.11 c 0,218.95 198.06,397.09 441.52,397.09 52.59,0 103.58,-8.11 152.1,-24.16 50.27,51.47 115.62,88.62 187.82,107.66 -64.32,129.97 -198.91,216.2 -347.42,216.2 -31.58,0 -63.05,-3.84 -93.53,-11.4 -22.53,-5.58 -46.13,3.37 -59.29,22.49 -80.08,116.33 -212.05,185.78 -353.03,185.78 -107.2,0 -209.78,-39.8 -288.84,-112.07 -78.56,-71.81 -127.376,-169.44 -137.455,-274.91 -1.863,-19.5 -13.832,-36.58 -31.519,-45 -5.121,-2.43 -10.297,-5.09 -15.379,-7.9 -4.648,-2.57 -9.637,-4.46 -14.816,-5.62 -72.118,-16.09 -137.629,-56.62 -184.461,-114.13 -48.117,-59.08 -73.551,-130.59 -73.551,-206.79 0,-181.38 148.402,-328.94 330.816,-328.94 H 1293.9 c 10.96,67.72 41.89,131.39 90.24,184.7 -0.27,5.69 -0.41,11.36 -0.41,17" /><path
           inkscape:connector-curvature="0"
           id="path100"
           style="fill:#61c9e7;fill-opacity:1;fill-rule:nonzero;stroke:none"
           d="m 1053.31,3597.49 c 5.41,0 10.91,0.79 16.34,2.45 29.41,9.02 45.95,40.17 36.93,69.58 l -67.06,218.82 c -9.01,29.41 -40.161,45.94 -69.571,36.93 -29.41,-9.01 -45.945,-40.16 -36.929,-69.57 l 67.06,-218.83 c 7.35,-23.97 29.4,-39.38 53.23,-39.38" /><path
           inkscape:connector-curvature="0"
           id="path102"
           style="fill:#61c9e7;fill-opacity:1;fill-rule:nonzero;stroke:none"
           d="m 1519.71,3597.49 c 5.4,0 10.9,0.79 16.34,2.45 29.41,9.02 45.94,40.17 36.93,69.58 l -67.06,218.82 c -9.01,29.41 -40.17,45.94 -69.57,36.93 -29.41,-9.01 -45.95,-40.16 -36.93,-69.57 l 67.06,-218.83 c 7.35,-23.97 29.4,-39.38 53.23,-39.38" /><path
           inkscape:connector-curvature="0"
           id="path104"
           style="fill:#61c9e7;fill-opacity:1;fill-rule:nonzero;stroke:none"
           d="m 1986.11,3597.49 c 5.4,0 10.9,0.79 16.34,2.45 29.41,9.02 45.94,40.17 36.93,69.58 l -67.06,218.82 c -9.02,29.41 -40.16,45.94 -69.57,36.93 -29.41,-9.01 -45.95,-40.16 -36.93,-69.57 l 67.06,-218.83 c 7.34,-23.97 29.4,-39.38 53.23,-39.38" /><path
           inkscape:connector-curvature="0"
           id="path106"
           style="fill:#4492a8;fill-opacity:1;fill-rule:nonzero;stroke:none"
           d="m 2585.41,4633.76 c -28.9,10.46 -43.86,42.36 -33.43,71.27 8.57,23.77 12.92,48.53 12.92,73.61 0,105.71 -77.07,196.15 -185.26,231.84 -31.85,10.51 -66.37,16.32 -102.45,16.32 -18.89,0 -37.5,-1.65 -55.66,-4.74 -74.28,-12.64 -140.56,-50.23 -183.71,-105.91 -15.55,-20.07 -42.72,-27.07 -66.04,-17.04 -45.77,19.7 -95.07,29.69 -146.53,29.69 -182.03,0 -330.13,-128.16 -330.13,-285.69 0,-10.13 0.65,-20.47 1.92,-30.74 2.15,-17.41 -4.03,-34.82 -16.68,-46.99 -36.83,-35.4 -61.7,-78.18 -72.86,-123.97 -4.39,-18.01 -6.72,-36.48 -6.72,-55.16 0,-19.29 2.42,-38.09 6.92,-56.23 29.99,-120.97 154.62,-211.97 303.43,-211.97 h 754.74 c 171.13,0 310.35,120.31 310.35,268.2 0,108.4 -74.89,205.55 -190.81,247.51" /></g><path
         d="m 7326.9,5383.07 c 0,-30.76 24.94,-55.69 55.69,-55.69 30.76,0 55.7,24.93 55.7,55.69 v 235.94 c 0,30.75 -24.94,55.69 -55.7,55.69 -30.75,0 -55.69,-24.94 -55.69,-55.69 v -235.94"
         style="fill:#dec60f;fill-opacity:1;fill-rule:nonzero;stroke:none"
         id="path108"
         inkscape:connector-curvature="0" /><path
         d="m 7326.9,3862.6 v -235.94 c 0,-30.76 24.94,-55.7 55.69,-55.7 30.76,0 55.7,24.94 55.7,55.7 v 235.94 c 0,30.75 -24.94,55.69 -55.7,55.69 -30.75,0 -55.69,-24.94 -55.69,-55.69"
         style="fill:#dec60f;fill-opacity:1;fill-rule:nonzero;stroke:none"
         id="path110"
         inkscape:connector-curvature="0" /><path
         d="m 7002.52,5225.51 c 9.46,0 19.03,2.41 27.8,7.47 26.64,15.38 35.77,49.45 20.39,76.09 l -117.97,204.32 c -15.38,26.64 -49.45,35.77 -76.08,20.39 -26.64,-15.38 -35.77,-49.44 -20.39,-76.08 l 117.97,-204.33 c 10.31,-17.87 29.03,-27.86 48.28,-27.86"
         style="fill:#dec60f;fill-opacity:1;fill-rule:nonzero;stroke:none"
         id="path112"
         inkscape:connector-curvature="0" /><path
         d="m 7734.86,4012.68 c -26.64,-15.38 -35.76,-49.44 -20.39,-76.08 l 117.98,-204.33 c 10.31,-17.86 29.03,-27.85 48.28,-27.85 9.45,0 19.03,2.4 27.8,7.47 26.64,15.38 35.77,49.44 20.39,76.08 l -117.97,204.33 c -15.38,26.63 -49.45,35.76 -76.09,20.38"
         style="fill:#dec60f;fill-opacity:1;fill-rule:nonzero;stroke:none"
         id="path114"
         inkscape:connector-curvature="0" /><path
         d="m 6471.64,5148.77 c -15.38,-26.64 -6.25,-60.71 20.39,-76.09 l 204.33,-117.96 c 8.77,-5.07 18.35,-7.47 27.8,-7.47 19.24,0 37.97,9.99 48.28,27.85 15.38,26.64 6.25,60.71 -20.38,76.09 l -204.33,117.96 c -26.64,15.38 -60.71,6.26 -76.09,-20.38"
         style="fill:#dec60f;fill-opacity:1;fill-rule:nonzero;stroke:none"
         id="path116"
         inkscape:connector-curvature="0" /><path
         d="m 8273.15,4172.98 -204.32,117.97 c -26.63,15.37 -60.71,6.26 -76.09,-20.39 -15.38,-26.63 -6.25,-60.7 20.39,-76.08 l 204.33,-117.97 c 8.77,-5.06 18.34,-7.47 27.8,-7.47 19.24,0 37.97,9.99 48.28,27.86 15.38,26.63 6.25,60.7 -20.39,76.08"
         style="fill:#dec60f;fill-opacity:1;fill-rule:nonzero;stroke:none"
         id="path118"
         inkscape:connector-curvature="0" /><path
         d="m 6678.05,4622.83 c 0,30.76 -24.94,55.7 -55.7,55.7 h -235.93 c -30.76,0 -55.7,-24.94 -55.7,-55.7 0,-30.76 24.94,-55.7 55.7,-55.7 h 235.93 c 30.76,0 55.7,24.94 55.7,55.7"
         style="fill:#dec60f;fill-opacity:1;fill-rule:nonzero;stroke:none"
         id="path120"
         inkscape:connector-curvature="0" /><path
         d="m 8378.77,4678.53 h -235.94 c -30.76,0 -55.7,-24.94 -55.7,-55.7 0,-30.76 24.94,-55.7 55.7,-55.7 h 235.94 c 30.76,0 55.7,24.94 55.7,55.7 0,30.76 -24.94,55.7 -55.7,55.7"
         style="fill:#dec60f;fill-opacity:1;fill-rule:nonzero;stroke:none"
         id="path122"
         inkscape:connector-curvature="0" /><path
         d="m 6696.36,4290.95 -204.33,-117.97 c -26.64,-15.38 -35.77,-49.45 -20.39,-76.08 10.32,-17.87 29.04,-27.86 48.29,-27.86 9.45,0 19.03,2.41 27.8,7.47 l 204.33,117.97 c 26.63,15.38 35.76,49.45 20.38,76.08 -15.38,26.65 -49.45,35.77 -76.08,20.39"
         style="fill:#dec60f;fill-opacity:1;fill-rule:nonzero;stroke:none"
         id="path124"
         inkscape:connector-curvature="0" /><path
         d="m 8217.46,5169.15 -204.33,-117.96 c -26.64,-15.38 -35.77,-49.45 -20.39,-76.09 10.32,-17.86 29.04,-27.85 48.29,-27.85 9.45,0 19.03,2.4 27.8,7.47 l 204.32,117.96 c 26.64,15.38 35.77,49.45 20.39,76.09 -15.38,26.64 -49.45,35.76 -76.08,20.38"
         style="fill:#dec60f;fill-opacity:1;fill-rule:nonzero;stroke:none"
         id="path126"
         inkscape:connector-curvature="0" /><path
         d="m 6954.24,3992.3 -117.97,-204.33 c -15.38,-26.64 -6.25,-60.71 20.39,-76.08 8.77,-5.07 18.35,-7.47 27.8,-7.47 19.24,0 37.97,9.99 48.28,27.85 l 117.97,204.33 c 15.38,26.64 6.25,60.71 -20.39,76.08 -26.63,15.38 -60.7,6.26 -76.08,-20.38"
         style="fill:#dec60f;fill-opacity:1;fill-rule:nonzero;stroke:none"
         id="path128"
         inkscape:connector-curvature="0" /><path
         d="m 7734.86,5232.98 c 8.77,-5.06 18.35,-7.47 27.8,-7.47 19.25,0 37.97,9.99 48.29,27.86 l 117.97,204.33 c 15.38,26.64 6.25,60.7 -20.39,76.08 -26.63,15.37 -60.71,6.25 -76.08,-20.39 l -117.98,-204.32 c -15.37,-26.64 -6.25,-60.7 20.39,-76.09"
         style="fill:#dec60f;fill-opacity:1;fill-rule:nonzero;stroke:none"
         id="path130"
         inkscape:connector-curvature="0" /><path
         d="m 10182.7,5192.86 v -270.01 c 0,-30.76 24.9,-55.7 55.7,-55.7 30.7,0 55.7,24.94 55.7,55.7 v 270.01 c 0,30.76 -25,55.7 -55.7,55.7 -30.8,0 -55.7,-24.94 -55.7,-55.7"
         style="fill:#dec60f;fill-opacity:1;fill-rule:nonzero;stroke:none"
         id="path132"
         inkscape:connector-curvature="0" /><path
         d="m 9640.49,5088.36 c -26.64,-15.38 -35.77,-49.45 -20.39,-76.08 l 135.01,-233.84 c 10.31,-17.87 29.03,-27.86 48.28,-27.86 9.45,0 19.03,2.41 27.8,7.47 26.64,15.38 35.77,49.45 20.39,76.08 l -135,233.84 c -15.38,26.64 -49.45,35.77 -76.09,20.39"
         style="fill:#dec60f;fill-opacity:1;fill-rule:nonzero;stroke:none"
         id="path134"
         inkscape:connector-curvature="0" /><path
         d="m 9512.73,4536.06 -233.83,135.01 c -26.63,15.37 -60.71,6.25 -76.09,-20.39 -15.38,-26.64 -6.25,-60.71 20.39,-76.08 l 233.84,-135.01 c 8.77,-5.06 18.35,-7.47 27.8,-7.47 19.24,0 37.97,9.99 48.28,27.86 15.38,26.64 6.25,60.7 -20.39,76.08"
         style="fill:#dec60f;fill-opacity:1;fill-rule:nonzero;stroke:none"
         id="path136"
         inkscape:connector-curvature="0" /><path
         d="m 9424.02,4052.8 c 0,30.76 -24.94,55.7 -55.7,55.7 h -270.01 c -30.76,0 -55.7,-24.94 -55.7,-55.7 0,-30.76 24.94,-55.69 55.7,-55.69 h 270.01 c 30.76,0 55.7,24.93 55.7,55.69"
         style="fill:#dec60f;fill-opacity:1;fill-rule:nonzero;stroke:none"
         id="path138"
         inkscape:connector-curvature="0" /><path
         d="m 11378.4,4108.5 h -270 c -30.7,0 -55.7,-24.94 -55.7,-55.7 0,-30.76 25,-55.69 55.7,-55.69 h 270 c 30.8,0 55.7,24.93 55.7,55.69 0,30.76 -24.9,55.7 -55.7,55.7"
         style="fill:#dec60f;fill-opacity:1;fill-rule:nonzero;stroke:none"
         id="path140"
         inkscape:connector-curvature="0" /><path
         d="m 11019.7,4439.59 233.8,135.01 c 26.7,15.37 35.8,49.44 20.4,76.08 -15.4,26.64 -49.4,35.77 -76.1,20.39 L 10964,4536.06 c -26.6,-15.38 -35.8,-49.44 -20.4,-76.08 10.3,-17.87 29,-27.86 48.3,-27.86 9.4,0 19,2.41 27.8,7.47"
         style="fill:#dec60f;fill-opacity:1;fill-rule:nonzero;stroke:none"
         id="path142"
         inkscape:connector-curvature="0" /><path
         d="m 10645.5,4758.05 c 8.8,-5.06 18.4,-7.47 27.8,-7.47 19.3,0 38,9.99 48.3,27.86 l 135,233.84 c 15.4,26.63 6.3,60.7 -20.4,76.08 -26.6,15.37 -60.7,6.26 -76,-20.39 l -135,-233.84 c -15.4,-26.63 -6.3,-60.7 20.3,-76.08"
         style="fill:#dec60f;fill-opacity:1;fill-rule:nonzero;stroke:none"
         id="path144"
         inkscape:connector-curvature="0" /><path
         d="m 1883.03,1681.7 -38.9,-145.2 138.91,57.4 126.06,-81.8 -11.7,149.8 116.81,94.6 -146.14,35.2 -53.86,140.3 -78.62,-128.1 -150.11,-7.8 97.55,-114.4"
         style="fill:#61c9e7;fill-opacity:1;fill-rule:nonzero;stroke:none"
         id="path146"
         inkscape:connector-curvature="0" /><path
         d="m 2292.77,2265.61 -57.5,77.28 -26.37,-92.64 -91.26,-30.79 79.95,-53.71 1.09,-96.32 75.79,59.45 91.93,-28.73 -33.11,90.45 55.73,78.56 -96.25,-3.55"
         style="fill:#61c9e7;fill-opacity:1;fill-rule:nonzero;stroke:none"
         id="path148"
         inkscape:connector-curvature="0" /><path
         d="m 9653.79,6923.88 c -69.48,0 -125.8,-56.32 -125.8,-125.8 0,-69.48 56.32,-125.8 125.8,-125.8 69.48,0 125.8,56.32 125.8,125.8 0,69.48 -56.32,125.8 -125.8,125.8"
         style="fill:#61c9e7;fill-opacity:1;fill-rule:nonzero;stroke:none"
         id="path150"
         inkscape:connector-curvature="0" /><path
         d="m 10356.9,6798.08 c 0,69.48 -56.4,125.8 -125.8,125.8 -69.5,0 -125.8,-56.32 -125.8,-125.8 0,-69.48 56.3,-125.8 125.8,-125.8 69.4,0 125.8,56.32 125.8,125.8"
         style="fill:#61c9e7;fill-opacity:1;fill-rule:nonzero;stroke:none"
         id="path152"
         inkscape:connector-curvature="0" /><path
         d="m 10902.3,6798.08 c 0,69.48 -56.3,125.8 -125.8,125.8 -69.4,0 -125.8,-56.32 -125.8,-125.8 0,-69.48 56.4,-125.8 125.8,-125.8 69.5,0 125.8,56.32 125.8,125.8"
         style="fill:#61c9e7;fill-opacity:1;fill-rule:nonzero;stroke:none"
         id="path154"
         inkscape:connector-curvature="0" /><path
         d="m 6909.6,6923.88 c -27.46,0 -49.73,-22.26 -49.73,-49.72 v -76.62 l -81.44,22.08 c -26.52,7.19 -53.82,-8.48 -61,-34.99 -7.18,-26.5 8.48,-53.81 34.98,-60.99 l 78.35,-21.24 -47.35,-72.98 c -14.95,-23.03 -8.39,-53.82 14.65,-68.77 8.36,-5.43 17.74,-8.02 27.01,-8.02 16.28,0 32.24,7.99 41.76,22.67 l 43.49,67.02 47.1,-70.12 c 9.6,-14.29 25.32,-22 41.32,-22 9.54,0 19.18,2.74 27.69,8.45 22.79,15.32 28.86,46.21 13.54,69.01 l -50.42,75.05 77.22,20.93 c 26.51,7.18 42.17,34.49 34.99,60.99 -7.18,26.51 -34.47,42.17 -61,34.99 l -81.44,-22.08 v 76.62 c 0,27.46 -22.26,49.72 -49.72,49.72"
         style="fill:#61c9e7;fill-opacity:1;fill-rule:nonzero;stroke:none"
         id="path156"
         inkscape:connector-curvature="0" /><path
         d="m 7537.07,6923.88 c -27.46,0 -49.72,-22.26 -49.72,-49.72 v -76.62 l -81.45,22.08 c -26.51,7.19 -53.81,-8.48 -60.99,-34.99 -7.19,-26.5 8.48,-53.81 34.98,-60.99 l 78.35,-21.24 -47.35,-72.98 c -14.95,-23.03 -8.39,-53.82 14.64,-68.77 8.37,-5.43 17.75,-8.02 27.02,-8.02 16.28,0 32.24,7.99 41.76,22.67 l 43.48,67.02 47.11,-70.12 c 9.6,-14.29 25.31,-22 41.32,-22 9.53,0 19.17,2.74 27.68,8.45 22.8,15.32 28.86,46.21 13.55,69.01 l -50.42,75.05 77.22,20.93 c 26.5,7.18 42.17,34.49 34.99,60.99 -7.19,26.51 -34.48,42.17 -61,34.99 l -81.45,-22.08 v 76.62 c 0,27.46 -22.26,49.72 -49.72,49.72"
         style="fill:#61c9e7;fill-opacity:1;fill-rule:nonzero;stroke:none"
         id="path158"
         inkscape:connector-curvature="0" /><path
         d="m 8164.55,6923.88 c -27.46,0 -49.72,-22.26 -49.72,-49.72 v -76.62 l -81.45,22.08 c -26.51,7.19 -53.81,-8.48 -61,-34.99 -7.18,-26.5 8.48,-53.81 34.99,-60.99 l 78.35,-21.24 -47.36,-72.98 c -14.94,-23.03 -8.39,-53.82 14.65,-68.77 8.36,-5.43 17.74,-8.02 27.02,-8.02 16.28,0 32.23,7.99 41.76,22.67 l 43.48,67.02 47.11,-70.12 c 9.6,-14.29 25.31,-22 41.32,-22 9.53,0 19.17,2.74 27.68,8.45 22.79,15.32 28.86,46.21 13.54,69.01 l -50.42,75.05 77.23,20.93 c 26.5,7.18 42.17,34.49 34.98,60.99 -7.18,26.51 -34.47,42.17 -61,34.99 l -81.44,-22.08 v 76.62 c 0,27.46 -22.26,49.72 -49.72,49.72"
         style="fill:#61c9e7;fill-opacity:1;fill-rule:nonzero;stroke:none"
         id="path160"
         inkscape:connector-curvature="0" /><path
         d="m 5317.27,1244.8 c 0,30.8 -24.94,55.7 -55.7,55.7 H 3798.84 c -30.76,0 -55.69,-24.9 -55.69,-55.7 0,-30.7 24.93,-55.7 55.69,-55.7 h 1462.73 c 30.76,0 55.7,25 55.7,55.7"
         style="fill:#61c9e7;fill-opacity:1;fill-rule:nonzero;stroke:none"
         id="path162"
         inkscape:connector-curvature="0" /><path
         d="M 5180.98,842.602 H 3718.26 c -30.76,0 -55.7,-25 -55.7,-55.704 0,-30.796 24.94,-55.699 55.7,-55.699 h 1462.72 c 30.76,0 55.7,24.903 55.7,55.699 0,30.704 -24.94,55.704 -55.7,55.704"
         style="fill:#61c9e7;fill-opacity:1;fill-rule:nonzero;stroke:none"
         id="path164"
         inkscape:connector-curvature="0" /><path
         d="m 4049.47,1068.4 c -30.76,0 -55.7,-24.9 -55.7,-55.7 0,-30.7 24.94,-55.7 55.7,-55.7 h 536.06 c 30.76,0 55.69,25 55.69,55.7 0,30.8 -24.93,55.7 -55.69,55.7 h -536.06"
         style="fill:#61c9e7;fill-opacity:1;fill-rule:nonzero;stroke:none"
         id="path166"
         inkscape:connector-curvature="0" /><path
         d="m 5434.86,1068.4 h -536.05 c -30.76,0 -55.7,-24.9 -55.7,-55.7 0,-30.7 24.94,-55.7 55.7,-55.7 h 536.05 c 30.76,0 55.7,25 55.7,55.7 0,30.8 -24.94,55.7 -55.7,55.7"
         style="fill:#61c9e7;fill-opacity:1;fill-rule:nonzero;stroke:none"
         id="path168"
         inkscape:connector-curvature="0" /><path
         d="m 10182.7,1858 v -854.7 c 0,-92.402 28.7,-179.8 80.9,-246.198 55.2,-70.204 129.9,-108.903 210.3,-108.903 80.3,0 155,38.699 210.3,108.903 52.2,66.398 80.9,153.796 80.9,246.198 0,30.8 -24.9,55.7 -55.7,55.7 -30.8,0 -55.7,-24.9 -55.7,-55.7 0,-134.398 -80.7,-243.698 -179.8,-243.698 -99.2,0 -179.8,109.3 -179.8,243.698 V 1859 c -15.9,1.6 -32.6,2.5 -50.4,2.5 -22.3,0 -42.4,-1.2 -61,-3.5"
         style="fill:#4492a8;fill-opacity:1;fill-rule:nonzero;stroke:none"
         id="path170"
         inkscape:connector-curvature="0" /><path
         d="m 10294.1,2711.21 v 119.05 c 0,30.75 -25,55.69 -55.7,55.69 -30.8,0 -55.7,-24.94 -55.7,-55.69 v -119.05 c 18.5,0.88 37,1.35 55.7,1.35 18.6,0 37.2,-0.47 55.7,-1.35"
         style="fill:#4492a8;fill-opacity:1;fill-rule:nonzero;stroke:none"
         id="path172"
         inkscape:connector-curvature="0" /></g><rect
       inkscape:tile-y0="513.85934"
       inkscape:tile-x0="-939.28308"
       transform="scale(1,-1)"
       y="-1180.3843"
       x="-782.953"
       height="224.35428"
       width="224.35428"
       id="use4686"
       style="opacity:1;fill:none;fill-opacity:1;stroke:#000003;stroke-width:0.67500001;stroke-linecap:round;stroke-linejoin:round;stroke-miterlimit:4;stroke-dasharray:none;stroke-opacity:1" /></g></svg>